<svg width="21" height="20" viewBox="0 0 21 20" fill="none" xmlns="http://www.w3.org/2000/svg">
<path d="M9.66675 10.8334V13.3334C9.66675 13.5695 9.74661 13.7674 9.90633 13.9271C10.0661 14.0868 10.264 14.1667 10.5001 14.1667C10.7362 14.1667 10.9341 14.0868 11.0938 13.9271C11.2536 13.7674 11.3334 13.5695 11.3334 13.3334V10.8334H13.8334C14.0695 10.8334 14.2674 10.7535 14.4272 10.5938C14.5869 10.434 14.6667 10.2361 14.6667 10C14.6667 9.76391 14.5869 9.56599 14.4272 9.40627C14.2674 9.24655 14.0695 9.16669 13.8334 9.16669H11.3334V6.66669C11.3334 6.43058 11.2536 6.23266 11.0938 6.07294C10.9341 5.91321 10.7362 5.83335 10.5001 5.83335C10.264 5.83335 10.0661 5.91321 9.90633 6.07294C9.74661 6.23266 9.66675 6.43058 9.66675 6.66669V9.16669H7.16675C6.93064 9.16669 6.73272 9.24655 6.573 9.40627C6.41328 9.56599 6.33342 9.76391 6.33342 10C6.33342 10.2361 6.41328 10.434 6.573 10.5938C6.73272 10.7535 6.93064 10.8334 7.16675 10.8334H9.66675ZM10.5001 18.3334C9.3473 18.3334 8.26397 18.1146 7.25008 17.6771C6.23619 17.2396 5.35425 16.6459 4.60425 15.8959C3.85425 15.1459 3.2605 14.2639 2.823 13.25C2.3855 12.2361 2.16675 11.1528 2.16675 10C2.16675 8.84724 2.3855 7.76391 2.823 6.75002C3.2605 5.73613 3.85425 4.85419 4.60425 4.10419C5.35425 3.35419 6.23619 2.76044 7.25008 2.32294C8.26397 1.88544 9.3473 1.66669 10.5001 1.66669C11.6529 1.66669 12.7362 1.88544 13.7501 2.32294C14.764 2.76044 15.6459 3.35419 16.3959 4.10419C17.1459 4.85419 17.7397 5.73613 18.1772 6.75002C18.6147 7.76391 18.8334 8.84724 18.8334 10C18.8334 11.1528 18.6147 12.2361 18.1772 13.25C17.7397 14.2639 17.1459 15.1459 16.3959 15.8959C15.6459 16.6459 14.764 17.2396 13.7501 17.6771C12.7362 18.1146 11.6529 18.3334 10.5001 18.3334Z" fill="white"/>
</svg>
